# xmcd CD database file
#
# Track frame offsets:
#	150
#	13563
#	31638
#	48081
#	64441
#	80201
#	96186
#	109096
#	124120
#	139577
#	158167
#
# Disc length: 2322 seconds
#
# Revision: 0
# Processed by: cddbd v1.5.2PL0 Copyright (c) Steve Scherf et al.
# Submitted via: CDex 2.09
#
DISCID=8909100b
DTITLE=Sofia Talvik - Big Sky Country
DYEAR=2015
DGENRE=Country
TTITLE0=Sofia Talvik - Aha-Aha
TTITLE1=Sofia Talvik - Big Sky Country
TTITLE2=Sofia Talvik - Dusty Heart, Empty Hand
TTITLE3=Sofia Talvik - Lullaby
TTITLE4=Sofia Talvik - A Matter Of The Hearts
TTITLE5=Sofia Talvik - Starwalker
TTITLE6=Sofia Talvik - Bonfire
TTITLE7=Sofia Talvik - Jasmine, Rose and Sage
TTITLE8=Sofia Talvik - Give Me A Home
TTITLE9=Sofia Talvik - Fairground
TTITLE10=Sofia Talvik - So
EXTD=YEAR: 2015
EXTT0=
EXTT1=
EXTT2=
EXTT3=
EXTT4=
EXTT5=
EXTT6=
EXTT7=
EXTT8=
EXTT9=
EXTT10=
PLAYORDER=
